<svg width="321" height="299" viewBox="0 0 321 299" fill="none" xmlns="http://www.w3.org/2000/svg">
<g filter="url(#filter0_d)">
<path d="M170.313 50.7675L46.981 51.5641L48.0306 214.128L171.362 213.331L170.313 50.7675Z" fill="#EEEEEE"/>
</g>
<path d="M170.452 50.6123L46.8364 51.4108L47.2365 113.37L170.852 112.572L170.452 50.6123Z" fill="#312D4A"/>
<path d="M106.88 130.467L73.3486 130.683L73.3651 133.24L106.897 133.023L106.88 130.467Z" fill="#BDBDBD"/>
<path d="M106.946 140.702L73.4141 140.918L73.4306 143.475L106.962 143.258L106.946 140.702Z" fill="#F5F5F5"/>
<path d="M160.909 135.236L73.3823 135.802L73.3988 138.359L160.925 137.793L160.909 135.236Z" fill="#37C26E"/>
<path d="M128.967 74.0454L95.4355 74.262L95.4521 76.8187L128.984 76.6021L128.967 74.0454Z" fill="#D0D0D0"/>
<path d="M149.466 79.5961L95.4722 79.9448L95.4887 82.502L149.482 82.1532L149.466 79.5961Z" fill="#D0D0D0"/>
<path opacity="0.2" d="M138.081 87.0633L106.954 87.2643C106.29 87.2686 105.755 87.8105 105.759 88.4746L105.762 88.9104C105.766 89.5745 106.308 90.1094 106.972 90.1052L138.099 89.9041C138.763 89.8998 139.298 89.358 139.294 88.6939L139.291 88.258C139.287 87.5939 138.745 87.059 138.081 87.0633Z" fill="#D0D0D0"/>
<path d="M59.0593 139.733C62.3561 139.712 65.0115 137.021 64.9902 133.724C64.9689 130.426 62.279 127.77 58.9822 127.792C55.6853 127.813 53.03 130.503 53.0512 133.801C53.0725 137.098 55.7624 139.754 59.0593 139.733Z" fill="#37C26E"/>
<path d="M69.1845 95.9328C78.2536 95.8742 85.5581 88.4734 85.4996 79.4026C85.441 70.3318 78.0415 63.0259 68.9724 63.0845C59.9033 63.1431 52.5987 70.5439 52.6573 79.6147C52.7159 88.6855 60.1153 95.9914 69.1845 95.9328Z" fill="#D0D0D0"/>
<path d="M107.045 155.197L73.5132 155.414L73.5297 157.971L107.061 157.754L107.045 155.197Z" fill="#BDBDBD"/>
<path d="M107.107 165.431L73.5757 165.648L73.5922 168.204L107.124 167.988L107.107 165.431Z" fill="#F5F5F5"/>
<path d="M161.07 159.966L73.5435 160.531L73.56 163.088L161.086 162.523L161.07 159.966Z" fill="#E0E0E0"/>
<path d="M59.2165 164.462C62.5134 164.441 65.1687 161.751 65.1474 158.453C65.1261 155.156 62.4363 152.5 59.1394 152.521C55.8425 152.543 53.1872 155.233 53.2085 158.53C53.2298 161.828 55.9196 164.484 59.2165 164.462Z" fill="#E0E0E0"/>
<path d="M107.203 179.923L73.6709 180.139L73.6874 182.696L107.219 182.479L107.203 179.923Z" fill="#BDBDBD"/>
<path d="M107.27 190.154L73.7378 190.37L73.7543 192.927L107.286 192.711L107.27 190.154Z" fill="#F5F5F5"/>
<path d="M161.229 184.691L73.7021 185.257L73.7187 187.814L161.245 187.249L161.229 184.691Z" fill="#E0E0E0"/>
<path d="M59.3781 189.192C62.675 189.17 65.3303 186.48 65.309 183.182C65.2878 179.885 62.5979 177.229 59.301 177.25C56.0042 177.272 53.3488 179.962 53.3701 183.26C53.3914 186.557 56.0813 189.213 59.3781 189.192Z" fill="#E0E0E0"/>
<path d="M213.464 191.229L180.339 186.011L179.942 188.537L213.066 193.755L213.464 191.229Z" fill="#BDBDBD"/>
<path d="M211.872 201.337L178.747 196.119L178.349 198.645L211.474 203.862L211.872 201.337Z" fill="#F5F5F5"/>
<path d="M244.395 139.13L211.27 133.912L210.872 136.438L243.997 141.655L244.395 139.13Z" fill="white"/>
<path opacity="0.2" d="M251.276 153.446L220.527 148.603C219.871 148.499 219.255 148.947 219.152 149.604L219.084 150.034C218.981 150.69 219.429 151.306 220.085 151.409L250.834 156.253C251.49 156.356 252.105 155.908 252.209 155.252L252.276 154.821C252.38 154.165 251.932 153.55 251.276 153.446Z" fill="black"/>
<path d="M164.769 192.624C168.026 193.137 171.082 190.913 171.595 187.655C172.108 184.398 169.884 181.341 166.627 180.828C163.37 180.315 160.314 182.54 159.801 185.798C159.288 189.055 161.513 192.111 164.769 192.624Z" fill="#69F0AE"/>
<path d="M209.62 215.654L176.496 210.437L176.098 212.962L209.222 218.18L209.62 215.654Z" fill="#BDBDBD"/>
<path d="M208.028 225.762L174.904 220.544L174.506 223.07L207.631 228.288L208.028 225.762Z" fill="#F5F5F5"/>
<path d="M160.925 217.05C164.182 217.563 167.238 215.338 167.751 212.08C168.264 208.823 166.039 205.767 162.783 205.254C159.526 204.741 156.47 206.965 155.957 210.223C155.444 213.48 157.668 216.537 160.925 217.05Z" fill="#E0E0E0"/>
<path d="M205.772 240.079L172.647 234.862L172.25 237.387L205.374 242.605L205.772 240.079Z" fill="#BDBDBD"/>
<path d="M204.18 250.187L171.056 244.969L170.658 247.495L203.783 252.713L204.18 250.187Z" fill="#F5F5F5"/>
<g filter="url(#filter1_d)">
<path d="M288.958 122.854L167.126 103.663L141.84 264.251L263.672 283.442L288.958 122.854Z" fill="#F5F5F5"/>
</g>
<path d="M289.122 122.724L167.009 103.489L157.371 164.695L279.484 183.93L289.122 122.724Z" fill="#312D4A"/>
<path d="M266.004 204.685L179.542 191.066L179.144 193.592L265.606 207.211L266.004 204.685Z" fill="#37C26E"/>
<path d="M263.719 147.93L210.382 139.528L209.985 142.054L263.321 150.456L263.719 147.93Z" fill="#D0D0D0"/>
<path d="M262.16 229.11L175.698 215.491L175.3 218.017L261.763 231.636L262.16 229.11Z" fill="#E0E0E0"/>
<path d="M258.313 253.535L171.85 239.915L171.452 242.441L257.915 256.061L258.313 253.535Z" fill="#E0E0E0"/>
<path d="M157.078 241.474C160.335 241.987 163.391 239.763 163.904 236.505C164.417 233.248 162.192 230.191 158.935 229.678C155.679 229.165 152.623 231.39 152.11 234.647C151.597 237.905 153.821 240.961 157.078 241.474Z" fill="#E0E0E0"/>
<path d="M167.924 133.896C167.489 136.878 167.881 139.922 169.058 142.696C170.234 145.471 172.149 147.869 174.595 149.629C177.041 151.389 179.923 152.444 182.927 152.678C185.93 152.912 188.941 152.317 191.63 150.957C194.319 149.597 196.582 147.525 198.174 144.967C199.766 142.408 200.625 139.461 200.658 136.448C200.69 133.435 199.894 130.47 198.358 127.878C196.821 125.286 194.602 123.166 191.943 121.748L191.334 125.945C191.114 127.4 190.329 128.709 189.15 129.589C187.971 130.469 186.492 130.848 185.036 130.644C183.575 130.428 182.259 129.642 181.376 128.458C180.493 127.275 180.114 125.79 180.322 124.328L180.931 120.131C177.61 120.807 174.578 122.492 172.25 124.956C169.923 127.419 168.412 130.541 167.924 133.896Z" fill="url(#paint0_linear)"/>
<path d="M200.707 137.31C201.174 134.334 200.816 131.286 199.671 128.5C198.526 125.713 196.638 123.294 194.213 121.507C191.788 119.72 188.919 118.633 185.918 118.365C182.918 118.096 179.902 118.657 177.198 119.985C174.495 121.314 172.207 123.359 170.586 125.898C168.965 128.437 168.071 131.373 168.003 134.385C167.936 137.397 168.696 140.369 170.201 142.979C171.706 145.589 173.899 147.735 176.54 149.184L177.198 144.996C177.432 143.538 178.233 142.232 179.427 141.362C180.621 140.493 182.11 140.132 183.57 140.357C185.028 140.591 186.334 141.393 187.203 142.587C188.072 143.781 188.433 145.27 188.208 146.73L187.549 150.918C190.876 150.279 193.924 148.629 196.279 146.194C198.633 143.759 200.18 140.657 200.707 137.31Z" fill="#6C63FF"/>
<path d="M183.833 138.762C187.283 139.306 190.521 136.949 191.064 133.498C191.607 130.048 189.251 126.81 185.801 126.266C182.351 125.723 179.114 128.08 178.57 131.53C178.027 134.981 180.383 138.219 183.833 138.762Z" fill="white" stroke="white" stroke-miterlimit="10"/>
<path d="M183.57 140.357C182.11 140.132 180.621 140.493 179.427 141.362C178.233 142.231 177.432 143.538 177.198 144.996L176.54 149.184C179.896 151.022 183.787 151.638 187.547 150.925L188.206 146.737C188.434 145.277 188.074 143.786 187.205 142.59C186.336 141.394 185.029 140.591 183.57 140.357Z" fill="white" stroke="white" stroke-miterlimit="10"/>
<path d="M178.568 131.176C178.219 130.128 178.159 129.005 178.395 127.926C178.639 126.843 179.297 125.899 180.228 125.294C181.26 124.66 182.539 124.58 183.746 124.674C184.954 124.768 186.137 125.028 187.366 124.954C188.367 124.911 189.349 124.669 190.256 124.242C191.163 123.816 191.976 123.213 192.648 122.47C192.622 123.402 192.468 124.326 192.191 125.216C192.049 125.661 191.817 126.072 191.511 126.424C191.205 126.777 190.83 127.063 190.409 127.265C191.426 126.973 191.162 127.987 190.863 128.576C191.243 129.217 192.371 129.491 192.316 130.238C192.299 130.985 192.102 131.718 191.744 132.374C191.349 133.005 191.47 134.251 190.727 134.184" fill="white"/>
<path d="M178.568 131.176C178.219 130.128 178.159 129.005 178.395 127.926C178.639 126.843 179.297 125.899 180.228 125.294C181.26 124.66 182.539 124.58 183.746 124.674C184.954 124.768 186.137 125.028 187.366 124.954C188.367 124.911 189.349 124.669 190.256 124.242C191.163 123.816 191.976 123.213 192.648 122.47C192.622 123.402 192.468 124.326 192.191 125.216C192.049 125.661 191.817 126.072 191.511 126.424C191.205 126.777 190.83 127.063 190.409 127.265C191.426 126.973 191.162 127.987 190.863 128.576C191.243 129.217 192.371 129.491 192.316 130.238C192.299 130.985 192.102 131.718 191.744 132.374C191.349 133.005 191.47 134.251 190.727 134.184" stroke="white" stroke-miterlimit="10"/>
<path d="M190.77 127.18C190.77 127.18 195.068 128.248 190.947 134.231L190.77 127.18Z" fill="white"/>
<g filter="url(#filter2_d)">
<path d="M262.23 54.208L143.099 22.2809L101.031 179.309L220.163 211.236L262.23 54.208Z" fill="#F5F5F5"/>
</g>
<path d="M262.409 54.0987L143.002 22.098L126.969 81.9474L246.375 113.948L262.409 54.0987Z" fill="#312D4A"/>
<path d="M179.949 114.243L147.559 105.562L146.897 108.032L179.288 116.712L179.949 114.243Z" fill="#BDBDBD"/>
<path d="M177.301 124.127L144.911 115.446L144.25 117.916L176.64 126.596L177.301 124.127Z" fill="#F5F5F5"/>
<path d="M230.78 133.164L146.234 110.506L145.573 112.976L230.118 135.634L230.78 133.164Z" fill="#37C26E"/>
<path d="M216.196 65.6979L183.806 57.0173L183.145 59.487L215.535 68.1675L216.196 65.6979Z" fill="#D0D0D0"/>
<path d="M234.49 76.4837L182.336 62.5063L181.674 64.976L233.829 78.9533L234.49 76.4837Z" fill="#D0D0D0"/>
<path opacity="0.2" d="M221.534 80.6636L191.467 72.6056C190.825 72.4337 190.166 72.8143 189.994 73.4558L189.881 73.8768C189.709 74.5183 190.09 75.1777 190.732 75.3496L220.799 83.4076C221.44 83.5795 222.1 83.1989 222.271 82.5574L222.384 82.1364C222.556 81.4949 222.175 80.8355 221.534 80.6636Z" fill="#D0D0D0"/>
<path d="M131.382 110.499C134.567 111.352 137.84 109.462 138.693 106.277C139.547 103.092 137.657 99.8179 134.472 98.9644C131.288 98.1109 128.014 100.001 127.161 103.186C126.308 106.371 128.198 109.645 131.382 110.499Z" fill="#37C26E"/>
<path d="M152.607 70.4242C161.226 72.7343 170.086 67.6181 172.396 58.9971C174.705 50.376 169.59 41.5146 160.971 39.2046C152.351 36.8946 143.491 42.0107 141.182 50.6318C138.872 59.2529 143.987 68.1142 152.607 70.4242Z" fill="#D0D0D0"/>
<path d="M173.55 138.128L141.16 129.447L140.499 131.917L172.889 140.597L173.55 138.128Z" fill="#BDBDBD"/>
<path d="M170.902 148.012L138.512 139.331L137.851 141.801L170.241 150.481L170.902 148.012Z" fill="#F5F5F5"/>
<path d="M224.382 157.049L139.836 134.391L139.174 136.861L223.72 159.519L224.382 157.049Z" fill="#E0E0E0"/>
<path d="M124.984 134.384C128.168 135.237 131.442 133.347 132.295 130.162C133.148 126.977 131.258 123.703 128.074 122.849C124.889 121.996 121.616 123.886 120.763 127.071C119.909 130.256 121.799 133.53 124.984 134.384Z" fill="#E0E0E0"/>
<path d="M167.151 162.016L134.76 153.336L134.099 155.805L166.489 164.486L167.151 162.016Z" fill="#BDBDBD"/>
<path d="M164.504 171.897L132.114 163.216L131.452 165.686L163.842 174.366L164.504 171.897Z" fill="#F5F5F5"/>
<path d="M217.983 180.934L133.437 158.276L132.775 160.746L217.321 183.404L217.983 180.934Z" fill="#E0E0E0"/>
<path d="M118.585 158.269C121.769 159.122 125.043 157.232 125.896 154.047C126.749 150.862 124.859 147.588 121.675 146.734C118.49 145.881 115.217 147.771 114.364 150.956C113.51 154.141 115.4 157.415 118.585 158.269Z" fill="#E0E0E0"/>
<defs>
<filter id="filter0_d" x="32.981" y="38.7675" width="152.381" height="191.361" filterUnits="userSpaceOnUse" color-interpolation-filters="sRGB">
<feFlood flood-opacity="0" result="BackgroundImageFix"/>
<feColorMatrix in="SourceAlpha" type="matrix" values="0 0 0 0 0 0 0 0 0 0 0 0 0 0 0 0 0 0 127 0"/>
<feOffset dy="2"/>
<feGaussianBlur stdDeviation="7"/>
<feColorMatrix type="matrix" values="0 0 0 0 0.113725 0 0 0 0 0.0980392 0 0 0 0 0.368627 0 0 0 0.156 0"/>
<feBlend mode="normal" in2="BackgroundImageFix" result="effect1_dropShadow"/>
<feBlend mode="normal" in="SourceGraphic" in2="effect1_dropShadow" result="shape"/>
</filter>
<filter id="filter1_d" x="128.84" y="92.6631" width="173.119" height="205.779" filterUnits="userSpaceOnUse" color-interpolation-filters="sRGB">
<feFlood flood-opacity="0" result="BackgroundImageFix"/>
<feColorMatrix in="SourceAlpha" type="matrix" values="0 0 0 0 0 0 0 0 0 0 0 0 0 0 0 0 0 0 127 0"/>
<feOffset dy="2"/>
<feGaussianBlur stdDeviation="6.5"/>
<feColorMatrix type="matrix" values="0 0 0 0 0.113725 0 0 0 0 0.0980392 0 0 0 0 0.368627 0 0 0 0.16 0"/>
<feBlend mode="normal" in2="BackgroundImageFix" result="effect1_dropShadow"/>
<feBlend mode="normal" in="SourceGraphic" in2="effect1_dropShadow" result="shape"/>
</filter>
<filter id="filter2_d" x="87.0308" y="12.2809" width="189.199" height="216.955" filterUnits="userSpaceOnUse" color-interpolation-filters="sRGB">
<feFlood flood-opacity="0" result="BackgroundImageFix"/>
<feColorMatrix in="SourceAlpha" type="matrix" values="0 0 0 0 0 0 0 0 0 0 0 0 0 0 0 0 0 0 127 0"/>
<feOffset dy="4"/>
<feGaussianBlur stdDeviation="7"/>
<feColorMatrix type="matrix" values="0 0 0 0 0.113235 0 0 0 0 0.0977098 0 0 0 0 0.366812 0 0 0 0.424 0"/>
<feBlend mode="normal" in2="BackgroundImageFix" result="effect1_dropShadow"/>
<feBlend mode="normal" in="SourceGraphic" in2="effect1_dropShadow" result="shape"/>
</filter>
<linearGradient id="paint0_linear" x1="-18220.7" y1="-13307.9" x2="-17945.1" y2="-15978.6" gradientUnits="userSpaceOnUse">
<stop stop-opacity="0.12"/>
<stop offset="0.55" stop-opacity="0.09"/>
<stop offset="1" stop-opacity="0.02"/>
</linearGradient>
</defs>
</svg>
