<svg width="140" height="166" viewBox="0 0 140 166" fill="none" xmlns="http://www.w3.org/2000/svg">
<path fill-rule="evenodd" clip-rule="evenodd" d="M128.199 27.5921L47.1897 5.79744C42.6466 4.57517 37.9684 7.28696 36.7493 11.855L5.77563 127.92C4.55659 132.488 7.25765 137.186 11.8008 138.408L92.8103 160.203C97.3534 161.425 102.032 158.713 103.251 154.145L134.224 38.0795C135.443 33.5115 132.742 28.8144 128.199 27.5921ZM52.7719 147.557C47.1428 146.043 43.8137 140.246 45.3219 134.595C46.83 128.944 52.5997 125.595 58.2288 127.109C63.8579 128.624 67.187 134.421 65.6789 140.072C64.1707 145.723 58.401 149.072 52.7719 147.557ZM103.508 131.416C102.685 134.501 99.5128 136.343 96.4383 135.516L20.9521 115.207C17.8776 114.38 16.0476 111.192 16.8708 108.107L41.4277 16.0873C42.2509 13.0024 45.4232 11.1603 48.4978 11.9875L123.984 32.2962C127.058 33.1233 128.888 36.3112 128.065 39.3961L103.508 131.416ZM47.9437 2.972L128.953 24.7667C135.052 26.4075 138.673 32.7096 137.038 38.8366L106.065 154.902C104.43 161.029 98.155 164.669 92.0563 163.028L11.0468 141.233C4.94803 139.592 1.32657 133.29 2.96163 127.163L33.9353 11.0979C35.5704 4.97093 41.845 1.33121 47.9437 2.972ZM48.1359 135.352C47.0438 139.444 49.4524 143.636 53.5259 144.732C57.5994 145.828 61.7728 143.407 62.8649 139.315C63.957 135.222 61.5483 131.031 57.4748 129.935C53.4013 128.839 49.228 131.26 48.1359 135.352ZM97.1923 132.691C98.7112 133.099 100.287 132.185 100.694 130.659L125.251 38.6391C125.658 37.1131 124.749 35.5302 123.23 35.1216L47.7438 14.8129C46.2249 14.4042 44.6489 15.3184 44.2417 16.8444L19.6848 108.864C19.2776 110.39 20.1872 111.973 21.7061 112.382L97.1923 132.691Z" fill="url(#paint0_linear)"/>
<path d="M66.7101 28.7259L57.8117 62.0701L48.8912 59.6701L38.9515 96.9162L53.9663 100.956L51.5051 110.179L79.5032 117.711L100.802 37.8981L66.7101 28.7259ZM50.1812 79.312L45.5002 78.0526L45.9498 76.3677L50.6309 77.627L50.1812 79.312ZM50.0393 79.8441L49.7553 80.9082L45.0742 79.6489L45.3582 78.5847L50.0393 79.8441ZM53.6601 66.2758L48.9791 65.0164L49.4287 63.3315L54.1098 64.5909L53.6601 66.2758ZM53.5418 66.7192L53.0922 68.4042L48.4111 67.1448L48.8607 65.4599L53.5418 66.7192ZM52.9502 68.9363L52.5005 70.6212L47.8194 69.3618L48.2691 67.6769L52.9502 68.9363ZM52.3822 71.0646L51.9325 72.7496L47.2514 71.4902L47.7011 69.8052L52.3822 71.0646ZM51.7905 73.2817L51.3409 74.9666L46.6598 73.7072L47.1095 72.0223L51.7905 73.2817ZM51.1989 75.4987L50.7492 77.1836L46.0682 75.9242L46.5178 74.2393L51.1989 75.4987ZM54.6068 62.7286L54.2518 64.0588L49.5707 62.7994L49.9257 61.4692L54.6068 62.7286ZM53.2085 109.116L55.4805 100.603L55.6698 99.8933L59.693 84.8175L58.2798 84.4373L54.2566 99.5131L40.7433 95.8775L44.6955 81.0678L50.7898 82.7073L52.0914 77.8299L60.9236 80.2061L61.9649 76.3041L60.5517 75.9239L59.8891 78.407L52.47 76.411L56.0199 63.1088L58.8462 63.8692L62.5144 50.1236L79.4723 54.6859L79.8509 53.267L62.8931 48.7047L67.7446 30.525L83.9959 34.8972L80.3277 48.6428C77.73 48.7994 76.6194 51.5421 76.6194 51.5421L77.1256 51.7734C77.1256 51.7734 77.4506 50.9103 78.2172 50.1661C79.1195 49.2682 80.1447 48.9738 81.3165 49.194L81.7581 49.3128L85.4973 35.3012L89.8251 36.4655L87.5059 45.1563L88.3008 45.3701C89.337 45.744 89.9899 46.4899 90.3478 47.6317C90.6648 48.5724 90.5164 49.483 90.5164 49.483L90.7814 49.5543L91.0464 49.6256C91.0464 49.6256 91.504 46.1369 88.5074 44.9505L90.7084 36.7031L99.099 38.9605L95.7147 51.642L86.8825 49.2658L86.5039 50.6847L95.3361 53.0609L89.0173 76.7388L68.085 71.1072L63.5411 88.134C63.4055 88.2876 63.2698 88.4412 63.1578 88.5061C62.0079 89.6224 60.6941 89.9343 59.1926 89.5303L59.0506 90.0624C61.1703 90.6327 62.6499 89.7001 63.5284 88.8909C63.7761 88.6724 63.9117 88.5188 64.071 88.2765L72.55 90.5577L72.9286 89.1388L65.3329 87.0953L69.1195 72.9062L88.462 78.1101L84.6518 92.3878L77.851 90.5582L77.4723 91.9771L84.2732 93.8067L78.3804 115.888L53.2085 109.116Z" fill="#37C26E"/>
<defs>
<linearGradient id="paint0_linear" x1="88.4485" y1="13.8694" x2="51.2711" y2="152.055" gradientUnits="userSpaceOnUse">
<stop stop-color="#D2D2D2"/>
<stop offset="1" stop-color="#BABABA"/>
</linearGradient>
</defs>
</svg>
