<svg width="122" height="166" viewBox="0 0 122 166" fill="none" xmlns="http://www.w3.org/2000/svg">
<path d="M98.8364 121.914L47.3524 108.189C46.9257 108.076 46.5619 107.798 46.341 107.417C46.1201 107.037 46.0603 106.584 46.1746 106.16L66.8672 29.3259C66.9816 28.9014 67.2607 28.5394 67.6433 28.3197C68.0259 28.0999 68.4805 28.0404 68.9072 28.1541L120.391 41.8792C120.818 41.9929 121.182 42.2706 121.403 42.6513C121.623 43.0319 121.683 43.4842 121.569 43.9088L100.876 120.743C100.762 121.167 100.483 121.529 100.1 121.749C99.7177 121.969 99.2631 122.028 98.8364 121.914ZM49.8235 105.417L98.0897 118.284L117.92 44.6517L69.6539 31.7844L49.8235 105.417Z" fill="#D2D2D2"/>
<path d="M105.734 96.3029L54.2502 82.578C53.8235 82.4643 53.4597 82.1865 53.2388 81.8059C53.0179 81.4253 52.958 80.973 53.0724 80.5486C53.1867 80.1241 53.4658 79.7621 53.8484 79.5424C54.2309 79.3227 54.6856 79.2631 55.1123 79.3769L106.596 93.1018C107.023 93.2156 107.386 93.4933 107.607 93.8739C107.828 94.2545 107.888 94.7068 107.774 95.1313C107.659 95.5558 107.38 95.9177 106.998 96.1374C106.615 96.3572 106.16 96.4167 105.734 96.3029Z" fill="#D2D2D2"/>
<path d="M73.0947 115.052C72.668 114.938 72.3042 114.661 72.0833 114.28C71.8624 113.899 71.8026 113.447 71.9169 113.023L85.712 61.8C85.8263 61.3755 86.1055 61.0136 86.488 60.7938C86.8706 60.574 87.3252 60.5145 87.7519 60.6282C88.1786 60.742 88.5424 61.0197 88.7633 61.4004C88.9842 61.781 89.0441 62.2333 88.9297 62.6579L75.1346 113.88C75.0203 114.305 74.7411 114.667 74.3586 114.887C73.976 115.106 73.5214 115.166 73.0947 115.052Z" fill="#D2D2D2"/>
<path d="M98.8364 121.914C98.4097 121.801 98.0459 121.523 97.825 121.142C97.6041 120.762 97.5442 120.309 97.6586 119.885L111.454 68.6623C111.568 68.2378 111.847 67.8759 112.23 67.6561C112.612 67.4363 113.067 67.3768 113.494 67.4906C113.92 67.6043 114.284 67.882 114.505 68.2627C114.726 68.6433 114.786 69.0956 114.671 69.5202L100.876 120.743C100.762 121.167 100.483 121.529 100.1 121.749C99.7177 121.969 99.2631 122.028 98.8364 121.914Z" fill="#D2D2D2"/>
<path d="M112.631 70.6916L61.1476 56.9667C60.7209 56.8529 60.3571 56.5752 60.1362 56.1946C59.9154 55.814 59.8555 55.3617 59.9698 54.9372C60.0841 54.5127 60.3633 54.1508 60.7458 53.9311C61.1284 53.7114 61.583 53.6518 62.0097 53.7656L113.493 67.4905C113.92 67.6043 114.284 67.882 114.505 68.2626C114.726 68.6432 114.785 69.0955 114.671 69.52C114.557 69.9445 114.278 70.3064 113.895 70.5261C113.513 70.7458 113.058 70.8054 112.631 70.6916Z" fill="#D2D2D2"/>
<path d="M76.6089 75.0454L63.738 71.6141C63.3113 71.5004 62.9475 71.2227 62.7266 70.8421C62.5057 70.4615 62.4458 70.0092 62.5602 69.5847C62.6745 69.1602 62.9536 68.7983 63.3362 68.5786C63.7187 68.3588 64.1734 68.2993 64.6001 68.413L77.471 71.8443C77.8977 71.958 78.2615 72.2357 78.4824 72.6163C78.7032 72.9969 78.7631 73.4492 78.6488 73.8737C78.5345 74.2982 78.2553 74.6601 77.8728 74.8799C77.4902 75.0996 77.0356 75.1591 76.6089 75.0454Z" fill="#D2D2D2"/>
<path d="M68.4493 79.7331C68.0226 79.6193 67.6588 79.3416 67.4379 78.9609C67.217 78.5803 67.1572 78.128 67.2715 77.7034L70.7203 64.8978C70.8346 64.4733 71.1138 64.1113 71.4963 63.8916C71.8789 63.6718 72.3335 63.6123 72.7602 63.726C73.1869 63.8398 73.5507 64.1175 73.7716 64.4981C73.9925 64.8788 74.0524 65.3311 73.938 65.7556L70.4892 78.5613C70.3749 78.9858 70.0958 79.3477 69.7132 79.5675C69.3306 79.7873 68.876 79.8468 68.4493 79.7331Z" fill="#D2D2D2"/>
<path d="M102.689 81.9981L89.818 78.5669C89.3913 78.4531 89.0275 78.1754 88.8067 77.7948C88.5858 77.4142 88.5259 76.9619 88.6402 76.5374C88.7546 76.113 89.0337 75.751 89.4163 75.5313C89.7988 75.3116 90.2535 75.252 90.6802 75.3658L103.551 78.797C103.978 78.9108 104.342 79.1885 104.562 79.5691C104.783 79.9497 104.843 80.402 104.729 80.8265C104.615 81.251 104.335 81.6129 103.953 81.8326C103.57 82.0524 103.116 82.1119 102.689 81.9981Z" fill="#D2D2D2"/>
<path d="M66.7187 104.277C66.2932 104.162 65.931 103.883 65.7116 103.502L59.0433 92.0227C58.8223 91.6419 58.7624 91.1893 58.8768 90.7646C58.9912 90.3398 59.2705 89.9776 59.6533 89.7578C60.036 89.5379 60.4909 89.4783 60.9179 89.5921C61.3448 89.7059 61.7088 89.9838 61.9298 90.3647L68.5821 101.84C68.7455 102.123 68.821 102.449 68.7991 102.775C68.7772 103.101 68.659 103.413 68.4592 103.672C68.2595 103.932 67.9871 104.126 67.6764 104.232C67.3656 104.338 67.0304 104.35 66.7128 104.267L66.7187 104.277Z" fill="#D2D2D2"/>
<path d="M57.6131 101.849C57.2941 101.764 57.0077 101.587 56.7901 101.34C56.5726 101.093 56.4337 100.787 56.3911 100.462C56.3486 100.136 56.4043 99.8051 56.5511 99.5109C56.698 99.2168 56.9294 98.9727 57.216 98.8096L68.752 92.1831C69.1327 91.9895 69.5737 91.9489 69.9836 92.0698C70.3936 92.1907 70.7411 92.4638 70.9542 92.8326C71.1673 93.2014 71.2298 93.6376 71.1286 94.0509C71.0274 94.4642 70.7703 94.8229 70.4105 95.0529L58.8825 101.682C58.6925 101.791 58.4825 101.863 58.2646 101.892C58.0468 101.92 57.8253 101.906 57.6131 101.849Z" fill="#D2D2D2"/>
<path d="M96.3681 107.325L83.4972 103.894C83.0705 103.78 82.7067 103.503 82.4859 103.122C82.265 102.742 82.2051 102.289 82.3194 101.865C82.4338 101.44 82.7129 101.078 83.0955 100.859C83.478 100.639 83.9327 100.579 84.3594 100.693L97.2303 104.124C97.657 104.238 98.0208 104.516 98.2416 104.896C98.4625 105.277 98.5224 105.729 98.4081 106.154C98.2937 106.578 98.0146 106.94 97.632 107.16C97.2495 107.38 96.7948 107.439 96.3681 107.325Z" fill="#D2D2D2"/>
<path d="M92.3637 96.5821C92.0057 96.4867 91.6273 96.499 91.2764 96.6175C90.9255 96.736 90.6177 96.9554 90.3921 97.2479C90.1665 97.5404 90.0332 97.8929 90.0089 98.2608C89.9847 98.6287 90.0707 98.9955 90.256 99.3148C90.4413 99.6341 90.7176 99.8916 91.05 100.055C91.3824 100.218 91.7559 100.279 92.1234 100.231C92.4908 100.183 92.8356 100.027 93.1143 99.7843C93.3929 99.5412 93.5928 99.2214 93.6887 98.8653C93.8173 98.3877 93.75 97.8789 93.5015 97.4507C93.253 97.0225 92.8437 96.7101 92.3637 96.5821Z" fill="#D2D2D2"/>
<path d="M89.3329 107.835C88.9749 107.739 88.5966 107.752 88.2456 107.87C87.8947 107.989 87.587 108.208 87.3614 108.501C87.1358 108.793 87.0024 109.146 86.9782 109.513C86.954 109.881 87.0399 110.248 87.2252 110.567C87.4105 110.887 87.6869 111.144 88.0193 111.307C88.3516 111.47 88.7252 111.532 89.0926 111.484C89.46 111.436 89.8049 111.28 90.0835 111.037C90.3621 110.794 90.562 110.474 90.658 110.118C90.7866 109.64 90.7192 109.132 90.4707 108.703C90.2222 108.275 89.813 107.963 89.3329 107.835Z" fill="#D2D2D2"/>
<path d="M71.3698 121.455L1.60904 102.858C1.18234 102.744 0.818535 102.466 0.597658 102.085C0.376782 101.705 0.316928 101.253 0.431262 100.828L21.3912 23.0018C21.5055 22.5773 21.7847 22.2153 22.1672 21.9956C22.5498 21.7758 23.0044 21.7163 23.4311 21.83C23.8578 21.9438 24.2216 22.2215 24.4425 22.6021C24.6634 22.9828 24.7233 23.4351 24.6089 23.8596L4.08011 100.085L72.232 118.254C72.6587 118.367 73.0225 118.645 73.2434 119.026C73.4643 119.406 73.5241 119.859 73.4098 120.283C73.2954 120.708 73.0163 121.07 72.6337 121.289C72.2512 121.509 71.7965 121.569 71.3698 121.455Z" fill="#D2D2D2"/>
<path d="M95.2138 32.918C94.7871 32.8043 94.4233 32.5266 94.2024 32.1459C93.9816 31.7653 93.9217 31.313 94.0361 30.8885L96.4892 21.7805L49.8316 9.34339C49.4049 9.22964 49.0411 8.95192 48.8202 8.5713C48.5993 8.19068 48.5395 7.73836 48.6538 7.31383C48.7682 6.8893 49.0473 6.52734 49.4299 6.30758C49.8125 6.08782 50.2671 6.02826 50.6938 6.142L98.9604 19.008C99.3871 19.1218 99.7509 19.3995 99.9718 19.7801C100.193 20.1607 100.252 20.613 100.138 21.0376L97.2538 31.7462C97.1395 32.1707 96.8603 32.5327 96.4777 32.7525C96.0952 32.9722 95.6405 33.0318 95.2138 32.918Z" fill="#D2D2D2"/>
<path d="M44.0958 30.7694L22.5689 25.0311C22.2521 24.9453 21.9678 24.7681 21.7518 24.5219C21.5359 24.2758 21.3979 23.9716 21.3553 23.6476C21.3126 23.3236 21.3672 22.9943 21.5121 22.7011C21.657 22.4079 21.8858 22.1638 22.1697 21.9996L49.4733 6.32274C49.7578 6.16301 50.0834 6.09007 50.4093 6.113C50.7352 6.13594 51.0471 6.25373 51.3063 6.45172C51.5654 6.64971 51.7602 6.91915 51.8666 7.22651C51.973 7.53386 51.9861 7.86556 51.9044 8.1803L46.1358 29.5976C46.0215 30.0221 45.7423 30.3841 45.3597 30.6038C44.9772 30.8236 44.5225 30.8831 44.0958 30.7694ZM27.3167 22.8655L43.3492 27.1391L47.6455 11.1882L27.3167 22.8655Z" fill="#D2D2D2"/>
<path d="M56.1466 48.7713L30.6139 41.9646C30.1872 41.8509 29.8234 41.5731 29.6026 41.1925C29.3817 40.8119 29.3218 40.3596 29.4361 39.9351C29.5505 39.5107 29.8296 39.1487 30.2122 38.929C30.5947 38.7093 31.0494 38.6497 31.4761 38.7635L57.0087 45.5702C57.4354 45.684 57.7992 45.9617 58.0201 46.3423C58.241 46.7229 58.3008 47.1752 58.1865 47.5997C58.0722 48.0242 57.793 48.3861 57.4105 48.6058C57.0279 48.8255 56.5733 48.8851 56.1466 48.7713Z" fill="#D2D2D2"/>
<path d="M53.2364 59.5759L27.7038 52.7692C27.2771 52.6554 26.9133 52.3777 26.6924 51.9971C26.4715 51.6165 26.4117 51.1642 26.526 50.7397C26.6403 50.3152 26.9194 49.9533 27.302 49.7336C27.6846 49.5138 28.1392 49.4543 28.5659 49.5681L54.0986 56.3748C54.5252 56.4885 54.8891 56.7662 55.1099 57.1468C55.3308 57.5274 55.3907 57.9797 55.2764 58.4042C55.162 58.8287 54.8829 59.1906 54.5003 59.4104C54.1178 59.6301 53.6631 59.6896 53.2364 59.5759Z" fill="#D2D2D2"/>
<path d="M39.6681 67.539L24.7941 63.5737C24.3674 63.46 24.0036 63.1823 23.7827 62.8017C23.5618 62.4211 23.502 61.9688 23.6163 61.5443C23.7306 61.1198 24.0098 60.7579 24.3923 60.5381C24.7749 60.3184 25.2295 60.2589 25.6562 60.3726L40.5302 64.3378C40.9569 64.4516 41.3207 64.7293 41.5416 65.1099C41.7624 65.4905 41.8223 65.9428 41.708 66.3673C41.5937 66.7918 41.3145 67.1537 40.9319 67.3734C40.5494 67.5932 40.0948 67.6527 39.6681 67.539Z" fill="#D2D2D2"/>
<path d="M40.0733 120.193L38.0659 123.907L36.6617 123.705L36.4957 123.419L37.3731 119.646C38.2475 119.579 39.1275 119.664 40.0131 119.9L40.0733 120.193ZM35.9292 123.718L35.3702 125.02L35.0115 125.062L31.8549 123.115C32.0359 122.357 32.3696 121.548 32.8561 120.687L33.2061 120.677L35.9292 123.718ZM42.2142 123.977C42.4768 124.807 42.6602 125.673 42.7642 126.576L42.5177 126.718L38.543 126.004L38.2573 124.615L38.465 124.359L42.2142 123.977ZM38.2161 126.573L39.6205 130.126C39.1087 130.565 38.3526 131.009 37.3524 131.456L37.0782 131.314L36.6533 127.089L37.8684 126.446L38.2161 126.573ZM36.1072 126.667L36.0441 127.03L33.2667 129.607C32.7888 129.318 32.1125 128.735 31.2378 127.857L31.3483 127.575L35.0409 125.726L36.1072 126.667Z" fill="#37C26E"/>
<path d="M49.9119 137.533L49.2 140.177L41.1677 139.314L40.9068 138.864L41.6274 136.189L49.651 137.084L49.9119 137.533Z" fill="#37C26E"/>
<path d="M63.8236 150.052L61.1518 149.271L60.1418 153.666L59.8369 153.895L56.4066 153.223L56.2493 152.904L57.5966 148.289L52.4127 146.907L49.5679 146.252L49.3805 145.787L50.1097 143.08L61.1468 133.688L65.0995 134.742L61.9812 145.933L64.6704 146.65L64.8254 147.106L63.8236 150.052ZM53.8814 143.774L58.5469 145.018L60.2571 138.668L59.9655 138.59L53.8814 143.774Z" fill="#37C26E"/>
<path d="M81.7569 139.286L80.4091 142.485L79.9983 142.721L77.1368 141.613L73.3785 140.611L72.3089 144.195L74.2048 145.15C75.9798 146.038 77.1649 147.01 77.7599 148.067C78.3824 149.108 78.5084 150.316 78.138 151.692C77.7734 153.046 77.1037 154.157 76.1289 155.026C75.1599 155.873 73.963 156.406 72.5381 156.625C71.1291 156.871 69.6146 156.778 67.9946 156.347C66.8714 156.047 65.7182 155.601 64.5349 155.01L65.2109 151.597L65.5807 151.384C66.8731 152.259 68.0917 152.848 69.2365 153.154C70.4245 153.47 71.4364 153.452 72.2723 153.099C73.114 152.725 73.6563 152.086 73.8994 151.184C74.0962 150.453 74.0012 149.817 73.6143 149.277C73.2333 148.714 72.5072 148.187 71.4362 147.694L68.4734 146.317L68.2773 145.884L70.9135 136.741L71.5621 136.395L73.4239 136.961L78.1542 138.222L81.5672 138.959L81.7569 139.286Z" fill="#37C26E"/>
<path d="M105.662 140.476L105.756 141.158L84.3557 160.535L82.8041 158.947L82.7312 158.444L104.199 138.946L105.662 140.476ZM90.3761 136.505C91.9312 136.92 92.989 137.72 93.5493 138.906C94.1097 140.091 94.1439 141.598 93.6519 143.424C93.1253 145.38 92.2665 146.763 91.0758 147.574C89.9124 148.37 88.4775 148.54 86.7711 148.085C85.1944 147.665 84.115 146.859 83.5331 145.667C82.9727 144.481 82.9385 142.975 83.4305 141.149C83.9571 139.193 84.813 137.82 85.998 137.031C87.2103 136.225 88.6697 136.05 90.3761 136.505ZM89.3292 139.232C88.53 139.019 87.8803 139.11 87.38 139.507C86.8797 139.903 86.4906 140.617 86.2128 141.648C85.9118 142.766 85.8726 143.642 86.0951 144.277C86.345 144.897 86.8695 145.313 87.6687 145.526C88.4895 145.745 89.1501 145.656 89.6504 145.26C90.1781 144.848 90.5808 144.126 90.8586 143.094C91.1596 141.977 91.1851 141.108 90.9352 140.489C90.6853 139.87 90.15 139.45 89.3292 139.232ZM103.36 150.055C104.916 150.469 105.97 151.28 106.525 152.488C107.085 153.674 107.122 155.169 106.636 156.974C106.104 158.951 105.242 160.345 104.051 161.157C102.888 161.952 101.453 162.122 99.7468 161.667C98.17 161.247 97.0907 160.441 96.5087 159.249C95.9484 158.064 95.9142 156.557 96.4061 154.731C96.9386 152.754 97.7973 151.37 98.9823 150.581C100.195 149.775 101.654 149.6 103.36 150.055ZM102.305 152.814C101.506 152.601 100.856 152.692 100.356 153.089C99.8611 153.464 99.472 154.178 99.1885 155.231C98.8933 156.327 98.857 157.192 99.0795 157.827C99.3236 158.468 99.8452 158.895 100.644 159.108C101.465 159.327 102.126 159.238 102.626 158.842C103.154 158.43 103.559 157.697 103.843 156.644C104.138 155.548 104.161 154.69 103.911 154.071C103.661 153.452 103.126 153.033 102.305 152.814Z" fill="#37C26E"/>
</svg>
