<svg width="179" height="166" viewBox="0 0 179 166" fill="none" xmlns="http://www.w3.org/2000/svg">
<path d="M90.5132 92.5747C91.5776 92.8599 92.6166 93.2146 93.6375 93.6217C89.9494 98.3532 87.0863 103.874 85.4356 110.035C81.9144 123.176 84.4565 136.518 91.2868 147.136L12.2128 125.948C6.8231 124.504 3.62152 118.958 5.06567 113.569L7.78151 103.433C12.3397 86.4216 29.8406 76.3175 46.8521 80.8757L50.5048 81.8545C55.4084 85.8327 61.1623 88.8883 67.6381 90.6235C74.1112 92.358 80.6452 92.5961 86.8621 91.5964L90.5132 92.5747ZM108.9 53.649C104.571 69.8077 87.9658 79.3946 71.807 75.0649C55.6483 70.7352 46.0614 54.1302 50.3911 37.9715C54.7208 21.8127 71.3258 12.2258 87.4846 16.5556C103.643 20.8853 113.23 37.4902 108.9 53.649Z" stroke="#D2D2D2" stroke-width="4"/>
<path d="M100.833 112.631C105.743 94.3037 124.542 83.4505 142.869 88.3612C161.196 93.272 172.049 112.07 167.139 130.398C162.228 148.725 143.43 159.578 125.102 154.667C106.775 149.756 95.9219 130.958 100.833 112.631Z" stroke="#37C26E" stroke-width="4"/>
<path d="M138.35 106.248L134.172 121.838L140.852 130.582" stroke="#37C26E" stroke-width="4"/>
</svg>
