<svg width="24" height="53" viewBox="0 0 24 53" fill="none" xmlns="http://www.w3.org/2000/svg">
<g opacity="0.3">
<path fill-rule="evenodd" clip-rule="evenodd" d="M22.4 26.9286V12.0714C22.4 6.29348 17.7438 1.60952 12 1.60952C6.25624 1.60952 1.6 6.29348 1.6 12.0714V26.9286C1.6 32.7065 6.25624 37.3905 12 37.3905C17.7438 37.3905 22.4 32.7065 22.4 26.9286ZM12 0C5.37258 0 0 5.40456 0 12.0714V26.9286C0 33.5954 5.37258 39 12 39C18.6274 39 24 33.5954 24 26.9286V12.0714C24 5.40456 18.6274 0 12 0Z" fill="white"/>
<path d="M10.4756 7.99196C10.4756 7.13285 11.1472 6.4364 11.9756 6.4364C12.804 6.4364 13.4756 7.13285 13.4756 7.99196V11.8808C13.4756 12.74 12.804 13.4364 11.9756 13.4364C11.1472 13.4364 10.4756 12.74 10.4756 11.8808V7.99196Z" fill="white"/>
<path fill-rule="evenodd" clip-rule="evenodd" d="M11.0751 50.1552V44H12.7773V50.2143L14.8229 48.5013L16 49.5767L11.912 53L8 49.5643L9.20603 48.5137L11.0751 50.1552Z" fill="white"/>
</g>
</svg>
