<svg width="167" height="51" viewBox="0 0 167 51" fill="none" xmlns="http://www.w3.org/2000/svg">
<path opacity="0.3" d="M51.2439 0.76001H0.921875V50.8264H51.2439V0.76001Z" fill="url(#paint0_radial)"/>
<path d="M61.9112 45.6154C62.0586 45.6377 62.2075 45.6485 62.3566 45.6476C62.5056 45.6471 62.6544 45.6364 62.802 45.6154V47.5562C62.802 47.7642 62.8194 47.8855 62.8567 47.9177C62.894 47.9499 63.1677 47.6998 63.6032 47.2641L64.2924 46.5685L65.1558 45.6154C65.3031 45.6385 65.4521 45.6492 65.6012 45.6476C65.747 45.6469 65.8925 45.6362 66.0367 45.6154V45.6971L65.748 45.9446L65.1285 46.4645C64.8183 46.7269 64.5122 46.9935 64.2103 47.2641L63.5932 47.831L64.0735 48.3955L64.795 49.2248L65.5415 50.0937L66.2084 50.8537V50.9082H66.0441C65.9616 50.8938 65.8786 50.8822 65.7953 50.8735H65.5241L65.4047 50.8859C65.3547 50.8838 65.3049 50.8914 65.2579 50.9082H65.1185L64.6209 50.3041L64.0934 49.6828L63.5609 49.0663L62.9886 48.4202L62.8244 48.242C62.8131 48.2617 62.8063 48.2837 62.8045 48.3063V50.9082L62.6303 50.8909C62.589 50.896 62.5472 50.896 62.5059 50.8909H62.3591H62.2222H62.0978L61.9137 50.9082V48.648C61.9137 48.5341 61.9137 48.4474 61.9137 48.4004C61.9137 48.3534 61.9137 48.289 61.9137 48.2494L61.7519 48.4227L60.9457 49.3362L60.2266 50.1655C59.9928 50.4453 59.7887 50.6953 59.6195 50.9082H59.4777C59.4277 50.9107 59.3778 50.9031 59.3309 50.8859C59.2923 50.8874 59.2538 50.8833 59.2164 50.8735H58.9228L58.8133 50.8859C58.7634 50.8843 58.7137 50.8918 58.6665 50.9082H58.5098V50.8537L59.1144 50.1531L59.7688 49.4105L60.5302 48.5192L61.1224 47.8335L60.3511 47.1329L59.6444 46.514L59.1891 46.1328L58.679 45.6971V45.6154L58.9427 45.6377H59.1119C59.261 45.638 59.4099 45.6272 59.5573 45.6055L60.4257 46.5586L61.1174 47.2542L61.3862 47.5315L61.6698 47.8013C61.7219 47.8551 61.7884 47.8929 61.8614 47.9102C61.8963 47.883 61.9162 47.7617 61.9162 47.5488L61.9112 45.6154Z" fill="#E8C280"/>
<path d="M68.6818 49.4648L69.4283 48.6281L70.2618 47.6255C70.5654 47.2525 70.8482 46.896 71.1103 46.556C71.2223 46.4124 71.3442 46.249 71.4786 46.0609C71.5483 45.9693 71.6577 45.8133 71.8045 45.6128H72.2524V50.9056L72.0036 50.8833L71.8045 50.871H71.6503H71.5259L71.3591 50.8883V47.0536L70.6475 47.8631L69.7542 48.9177L68.9033 50.007C68.7888 50.158 68.6768 50.304 68.5698 50.4501C68.4628 50.5962 68.3509 50.7497 68.2364 50.9205H67.791V45.6153C67.9378 45.6422 68.0872 45.653 68.2364 45.6475C68.3856 45.6509 68.5347 45.6401 68.6818 45.6153V49.4648Z" fill="#E8C280"/>
<path d="M76.5919 46.15V50.9081L76.4127 50.8908C76.3714 50.896 76.3296 50.896 76.2883 50.8908H76.1465H76.0121L75.8927 50.9031L75.7011 50.9254V46.15C75.061 46.1411 74.4209 46.1741 73.7852 46.249L73.8225 45.952L73.7852 45.6475H78.5128L78.4904 45.952L78.5128 46.249C77.8756 46.1714 77.2337 46.1383 76.5919 46.15Z" fill="#E8C280"/>
<path d="M80.8914 48.5218L80.0056 50.9107L79.8712 50.8934C79.8366 50.8984 79.8014 50.8984 79.7667 50.8934H79.6473H79.5403H79.4408L79.2939 50.9107C80.144 49.1888 80.9007 47.4228 81.5607 45.6204L81.7598 45.6525H82.0385L82.235 45.6204C82.4756 46.2607 82.8073 47.1032 83.2303 48.1479C83.6533 49.1926 84.0456 50.1136 84.4073 50.9107L84.1908 50.8884H84.1261C84.1022 50.8922 84.0778 50.8922 84.0539 50.8884H83.9022H83.7504H83.621L83.4145 50.9058C83.3025 50.5344 83.1656 50.1334 83.0014 49.7001C82.9218 49.4773 82.8347 49.2471 82.7526 49.0119C82.6705 48.7767 82.561 48.5317 82.4565 48.2692C82.2549 47.7741 82.0235 47.2171 81.7673 46.6378C81.5721 46.9182 81.4148 47.2228 81.2995 47.5439L80.8914 48.5218Z" fill="#E8C280"/>
<path d="M85.4669 48.2146C85.4613 47.8459 85.5325 47.4801 85.6759 47.1402C85.8119 46.82 86.0136 46.5316 86.2681 46.2935C86.528 46.0524 86.8333 45.8647 87.1663 45.7414C87.5236 45.6092 87.9024 45.5438 88.2836 45.5484C88.7524 45.5393 89.2154 45.652 89.6272 45.8751C90.0167 46.0944 90.3333 46.4223 90.5379 46.8183C90.7625 47.2625 90.8745 47.7546 90.8638 48.2517C90.864 48.5994 90.8034 48.9446 90.6847 49.2716C90.5662 49.6002 90.3835 49.9023 90.1472 50.1604C89.9023 50.4289 89.5995 50.6388 89.2614 50.7743C88.8872 50.9264 88.4862 51.0022 88.082 50.9971C87.6192 51.0011 87.1632 50.886 86.7583 50.6629C86.3526 50.4396 86.0213 50.1031 85.8053 49.695C85.5698 49.2374 85.4534 48.7284 85.4669 48.2146ZM88.2811 45.8925C87.8911 45.8746 87.5085 46.0027 87.2086 46.2514C86.9286 46.5004 86.725 46.8231 86.6214 47.1822C86.5031 47.5716 86.4436 47.9762 86.4447 48.3829C86.4405 48.7607 86.5003 49.1364 86.6214 49.4944C86.7326 49.8164 86.9285 50.1028 87.1887 50.3238C87.4689 50.5509 87.823 50.668 88.184 50.653C88.3647 50.6573 88.5443 50.624 88.7114 50.5554C88.8785 50.4868 89.0294 50.3843 89.1544 50.2545C89.4205 49.9747 89.6143 49.6349 89.7193 49.2642C89.831 48.915 89.8905 48.5513 89.8959 48.1849C89.896 47.9113 89.8685 47.6385 89.8138 47.3704C89.7642 47.1103 89.6735 46.8596 89.5451 46.6277C89.4233 46.4114 89.253 46.2258 89.0474 46.0856C88.818 45.9443 88.5504 45.8769 88.2811 45.8925Z" fill="#E8C280"/>
<path d="M91.8193 50.8733H92.6778V45.6474H94.8127C95.135 45.6424 95.4563 45.6858 95.7657 45.7761C96.0214 45.8437 96.2505 45.987 96.4226 46.187C96.588 46.3985 96.6719 46.662 96.659 46.9297C96.6632 47.0686 96.6374 47.2068 96.5833 47.3349C96.5292 47.4631 96.4481 47.5782 96.3454 47.6724C96.1019 47.8801 95.8009 48.0096 95.482 48.0437C95.8752 48.0912 96.2518 48.2294 96.5818 48.4473C96.7227 48.5639 96.8327 48.7131 96.9021 48.8819C96.9716 49.0506 96.9983 49.2338 96.9799 49.4152C96.9886 49.7008 96.8962 49.9803 96.7187 50.2049C96.5293 50.4293 96.2839 50.6001 96.007 50.7C95.8596 50.7558 95.7071 50.7972 95.5517 50.8238C95.3876 50.8541 95.221 50.869 95.054 50.8684L91.8193 50.8733ZM93.5611 46.0806V47.8977H94.6037C95.3186 47.8977 95.6753 47.5841 95.6736 46.9569C95.6845 46.8318 95.6648 46.7059 95.6163 46.59C95.5678 46.474 95.4918 46.3715 95.3949 46.291C95.1763 46.1407 94.9138 46.0667 94.6485 46.0806H93.5611ZM93.5611 48.3086V50.4451H94.7281C94.9469 50.4492 95.1644 50.4096 95.3676 50.3287C95.5444 50.2558 95.697 50.1348 95.808 49.9796C95.9195 49.8173 95.977 49.6242 95.9722 49.4276C95.9815 49.2034 95.9318 48.9806 95.8279 48.7815C95.7348 48.6165 95.5871 48.4887 95.4099 48.42C95.1919 48.3396 94.9604 48.3018 94.7281 48.3086H93.5611Z" fill="#E8C280"/>
<path d="M99.6877 49.4648L100.434 48.6281L101.27 47.6255C101.574 47.2525 101.856 46.896 102.116 46.556C102.228 46.4124 102.353 46.249 102.487 46.0609C102.557 45.9693 102.664 45.8133 102.813 45.6128H103.258V50.9056L103.009 50.8833L102.808 50.871H102.656H102.532L102.363 50.8883V47.0536L101.651 47.8631L100.76 48.9177L99.9116 50.007C99.7947 50.158 99.6852 50.304 99.5782 50.4501C99.4712 50.5962 99.3592 50.7497 99.2423 50.9205H98.7969V45.6153C98.9437 45.6421 99.0931 45.6529 99.2423 45.6475C99.3914 45.651 99.5406 45.6403 99.6877 45.6153V49.4648Z" fill="#E8C280"/>
<path d="M106.423 49.4649L107.17 48.6282L108.003 47.6256C108.307 47.2526 108.59 46.8961 108.852 46.5561C108.964 46.4125 109.086 46.2491 109.22 46.061C109.29 45.9694 109.399 45.8134 109.546 45.6129H109.991V50.9057L109.743 50.8834L109.541 50.8711C109.392 50.8718 109.243 50.8834 109.096 50.9057V47.0537L108.414 47.8632L107.523 48.9178L106.655 50.0071C106.538 50.1581 106.428 50.3041 106.321 50.4502C106.214 50.5963 106.102 50.7498 105.988 50.9206H105.54V45.6154C105.688 45.6377 105.838 45.6485 105.988 45.6476C106.137 45.6468 106.286 45.636 106.433 45.6154L106.423 49.4649ZM109.409 44.2266L109.633 44.5954C109.066 44.9384 108.415 45.1192 107.752 45.1178C107.429 45.1178 107.108 45.0736 106.797 44.9866C106.479 44.8945 106.173 44.7675 105.883 44.6078L106.107 44.2266C106.608 44.5198 107.178 44.6745 107.758 44.6745C108.339 44.6745 108.909 44.5198 109.409 44.2266Z" fill="#E8C280"/>
<path d="M116.843 45.6152V47.5561C116.84 47.6528 116.845 47.7496 116.856 47.8457C116.857 47.8601 116.861 47.874 116.869 47.8864C116.876 47.8988 116.886 47.9095 116.898 47.9175C117.105 47.9175 117.428 47.6997 117.866 47.264L118.555 46.5683L119.424 45.6152L119.673 45.6375H119.862H120.031L120.297 45.6152V45.6969L119.986 45.9618L119.384 46.4569C119.074 46.7194 118.768 46.9859 118.466 47.2566L117.846 47.8235L118.329 48.3879L119.05 49.2172L119.797 50.0862L120.461 50.8462V50.9006L120.235 50.8833C120.188 50.8884 120.14 50.8884 120.093 50.8833H119.919H119.752L119.6 50.8957L119.366 50.918C119.192 50.6853 118.921 50.356 118.548 49.9277L117.237 48.4275C117.132 48.3136 117.045 48.2542 116.988 48.2542C116.93 48.2542 116.846 48.3904 116.846 48.6602V50.9204L116.662 50.9031C116.622 50.9082 116.582 50.9082 116.542 50.9031H116.4H116.266L116.147 50.9155L115.955 50.9378V45.6152L116.204 45.6375H116.393H116.572L116.843 45.6152Z" fill="#E8C280"/>
<path d="M121.584 48.2146C121.578 47.8459 121.649 47.4801 121.793 47.1401C121.931 46.8199 122.135 46.5322 122.393 46.296C122.653 46.0553 122.958 45.8678 123.291 45.7439C123.648 45.6121 124.027 45.5467 124.408 45.5508C124.878 45.5416 125.342 45.6542 125.754 45.8776C126.144 46.0962 126.459 46.4243 126.662 46.8208C126.887 47.2649 126.999 47.7571 126.988 48.2542C126.988 48.6019 126.928 48.947 126.809 49.2741C126.692 49.6026 126.51 49.9046 126.274 50.1629C126.029 50.432 125.725 50.6419 125.386 50.7768C125.012 50.9293 124.611 51.0051 124.206 50.9996C123.744 51.0036 123.289 50.8885 122.885 50.6654C122.479 50.442 122.148 50.1056 121.932 49.6974C121.692 49.2405 121.572 48.7302 121.584 48.2146ZM124.398 45.8924C124.008 45.8741 123.625 46.0022 123.326 46.2514C123.046 46.5004 122.842 46.8231 122.738 47.1822C122.62 47.5715 122.561 47.9762 122.562 48.3829C122.557 48.7606 122.617 49.1364 122.738 49.4944C122.849 49.8168 123.045 50.1034 123.306 50.3238C123.586 50.5513 123.94 50.6685 124.301 50.653C124.483 50.6581 124.664 50.625 124.832 50.5559C125 50.4868 125.151 50.3833 125.276 50.252C125.543 49.9729 125.737 49.6329 125.841 49.2617C125.954 48.9128 126.014 48.5489 126.018 48.1824C126.018 47.9088 125.99 47.636 125.936 47.3679C125.888 47.1072 125.798 46.8561 125.667 46.6252C125.547 46.4078 125.376 46.222 125.169 46.0831C124.938 45.9412 124.669 45.8746 124.398 45.8924Z" fill="#E8C280"/>
<path d="M128.319 50.9081C128.372 50.6606 128.436 50.3313 128.511 49.8907C128.586 49.45 128.645 49.0514 128.693 48.69L128.872 47.274L129.073 45.6277H129.372C129.489 45.8604 129.606 46.0931 129.723 46.3209C129.84 46.5486 129.972 46.7962 130.116 47.0635C130.395 47.576 130.681 48.081 130.969 48.5835C131.121 48.8311 131.253 49.0613 131.36 49.2371C131.467 49.4129 131.609 49.6159 131.698 49.7496C132.335 48.6636 133.074 47.2913 133.913 45.6326H134.211L134.353 46.8704L134.51 48.1082L134.724 49.8411L134.848 50.8958L134.637 50.8735H134.572C134.548 50.8734 134.523 50.8692 134.5 50.8611H134.358H134.202H134.065L133.871 50.8784C133.871 50.7373 133.871 50.5566 133.843 50.3363C133.816 50.1159 133.816 49.9674 133.816 49.8882C133.816 49.7595 133.816 49.6406 133.803 49.5267C133.791 49.4129 133.779 49.2569 133.756 49.0514C133.755 48.9033 133.746 48.7554 133.729 48.6083C133.701 48.4028 133.681 48.2469 133.669 48.1429C133.639 47.8037 133.607 47.5116 133.567 47.2665C132.895 48.3558 132.232 49.5598 131.576 50.8784H131.328C131.221 50.6581 131.079 50.3685 130.882 50.012L130.342 49.0217L129.805 48.086C129.611 47.7517 129.442 47.477 129.307 47.2591L129.188 48.1231L129.063 49.1307L128.961 50.1407L128.926 50.871L128.819 50.8487C128.797 50.8506 128.775 50.8463 128.755 50.8363H128.65H128.548H128.471L128.319 50.9081Z" fill="#E8C280"/>
<path d="M139.019 45.6475H140.231L141.246 45.6277V50.9081L140.997 50.8858L140.796 50.8735H140.644H140.52L140.351 50.8908V46.1352H137.663V50.9081C137.516 50.8858 137.367 50.8742 137.218 50.8735H137.081L136.952 50.8858L136.772 50.9081V45.6277L137.793 45.6475H139.019Z" fill="#E8C280"/>
<path d="M144.379 48.5217L143.498 50.918L143.361 50.9007C143.327 50.9055 143.293 50.9055 143.259 50.9007H143.139H143.03H142.933L142.786 50.918C143.637 49.1967 144.393 47.4306 145.05 45.6277L145.252 45.6599H145.536L145.73 45.6277C145.974 46.268 146.305 47.1106 146.725 48.1553C147.145 49.2 147.538 50.1209 147.904 50.918L147.688 50.8958H147.621C147.598 50.8995 147.574 50.8995 147.551 50.8958H147.399H147.248H147.116L146.909 50.9131C146.796 50.5417 146.659 50.1399 146.499 49.7075C146.416 49.4847 146.332 49.2544 146.25 49.0192C146.168 48.7841 146.058 48.539 145.954 48.2766C145.75 47.7699 145.52 47.2261 145.264 46.6452C145.069 46.9255 144.912 47.2301 144.797 47.5512L144.379 48.5217Z" fill="#E8C280"/>
<path d="M153.5 49.7595V50.3388C153.211 50.5415 152.894 50.7032 152.56 50.8191C152.403 50.8745 152.241 50.9176 152.077 50.9478C151.913 50.9785 151.746 50.9934 151.58 50.9924C151.105 51.0031 150.636 50.8941 150.216 50.6755C149.817 50.4596 149.491 50.1292 149.283 49.7273C149.054 49.2773 148.941 48.7782 148.952 48.2742C148.944 47.7936 149.044 47.3173 149.246 46.8804C149.434 46.4781 149.736 46.1397 150.116 45.9075C150.535 45.6614 151.014 45.5379 151.5 45.551C151.795 45.5483 152.087 45.5995 152.363 45.702C152.631 45.8027 152.875 45.9569 153.08 46.155C153.303 46.3726 153.473 46.6375 153.578 46.9299C153.707 47.2792 153.769 47.6495 153.762 48.0216V48.1504V48.2643C153.513 48.2643 153.137 48.2642 152.637 48.2469C152.137 48.2296 151.761 48.2321 151.507 48.2321H149.937V48.4648C149.934 48.7371 149.976 49.0081 150.062 49.2669C150.14 49.5072 150.266 49.7294 150.432 49.9204C150.604 50.114 150.816 50.2671 151.055 50.3685C151.312 50.4804 151.59 50.537 151.871 50.5344C152.18 50.5183 152.484 50.4416 152.763 50.3087C153.043 50.1757 153.293 49.9891 153.5 49.7595ZM149.922 47.8137H152.893C152.896 47.5563 152.868 47.2994 152.809 47.0487C152.757 46.8296 152.673 46.6194 152.56 46.4249C152.451 46.245 152.294 46.0991 152.106 46.0037C151.918 45.9083 151.708 45.8673 151.497 45.8852C151.198 45.8769 150.905 45.9723 150.669 46.155C150.432 46.345 150.248 46.5922 150.134 46.873C150.069 47.0279 150.017 47.1877 149.977 47.3508C149.939 47.5047 149.921 47.6627 149.922 47.8211V47.8137Z" fill="#E8C280"/>
<path d="M156.454 45.6152V47.5561C156.447 47.6525 156.447 47.7493 156.454 47.8457C156.456 47.8601 156.461 47.8739 156.469 47.8863C156.477 47.8986 156.487 47.9092 156.499 47.9175C156.703 47.9175 157.026 47.6997 157.464 47.264L158.153 46.5683L159.024 45.6152L159.273 45.6375H159.465H159.631L159.898 45.6152V45.6969L159.589 45.9618L158.987 46.4569C158.673 46.7194 158.367 46.9859 158.069 47.2566L157.449 47.8235L157.929 48.3879L158.651 49.2172L159.397 50.0862L160.062 50.8462V50.9006L159.833 50.8833C159.787 50.8885 159.74 50.8885 159.694 50.8833H159.519H159.35L159.198 50.8957L158.967 50.918C158.793 50.6853 158.519 50.356 158.146 49.9277L156.835 48.4275C156.73 48.3136 156.645 48.2542 156.586 48.2542C156.526 48.2542 156.446 48.3904 156.446 48.6602V50.9204L156.26 50.9031C156.22 50.9079 156.18 50.9079 156.14 50.9031H156.001H155.864L155.745 50.9155L155.556 50.9378V45.6152L155.804 45.6375H155.996H156.175L156.454 45.6152Z" fill="#E8C280"/>
<path d="M165.832 46.0039L165.583 46.7342H165.491C165.401 46.6045 165.302 46.482 165.193 46.3679C165.058 46.2204 164.886 46.111 164.695 46.051C164.5 45.9739 164.293 45.9328 164.083 45.9297C163.811 45.9187 163.54 45.9732 163.294 46.0888C163.048 46.2043 162.834 46.3773 162.67 46.5931C162.505 46.8145 162.378 47.0612 162.294 47.3234C162.208 47.606 162.167 47.8998 162.169 48.1948C162.16 48.627 162.245 49.0561 162.418 49.4524C162.57 49.8016 162.82 50.0998 163.137 50.3115C163.45 50.5179 163.817 50.6257 164.192 50.6209C164.462 50.6247 164.729 50.5645 164.971 50.4452C165.242 50.2973 165.493 50.1151 165.718 49.903L165.79 49.9352L165.73 50.4303C165.24 50.7968 164.641 50.9925 164.028 50.9873C163.494 51.0017 162.964 50.8798 162.49 50.6333C162.075 50.4055 161.736 50.0611 161.515 49.6431C161.289 49.2081 161.174 48.7242 161.182 48.2345C161.169 47.7291 161.295 47.23 161.547 46.7912C161.785 46.3854 162.14 46.0596 162.565 45.8554C163.08 45.6216 163.643 45.5115 164.209 45.5338C164.775 45.5562 165.327 45.7104 165.822 45.9841L165.832 46.0039Z" fill="#E8C280"/>
<path d="M47.8404 3.55493H3.73145V48.0265H48.4475V3.55493H47.8404ZM6.5755 45.2019V6.38701H45.591V45.2019H6.5755Z" fill="url(#paint1_linear)"/>
<path d="M26.4016 11.4793L26.0831 11.2788L25.7671 11.4793L11.7484 20.2603L11.4697 20.4336V32.6036H19.6809V40.2012H40.6866V20.4336L40.4079 20.2603L26.4016 11.4793ZM22.5324 32.6036H32.4854V23.538L32.2067 23.3647L26.4016 19.733L26.0831 19.5324L25.7671 19.733L19.967 23.3647L19.6909 23.538V29.7765H14.3113V21.9957L26.0831 14.6209L37.855 21.9957V37.3815H22.5324V32.6036ZM22.5324 29.7765V25.1001L26.0831 22.872L29.6363 25.1001V29.7765H22.5324Z" fill="url(#paint2_linear)"/>
<path d="M62.9681 15.7994C63.9054 16.1389 64.8968 16.3067 65.8942 16.2945C66.4283 16.2946 66.9616 16.2532 67.4892 16.1707C67.9861 16.0928 68.4755 15.9736 68.9523 15.8142C69.4242 15.6548 69.8734 15.4351 70.2885 15.1607L70.3731 15.1037L70.5298 13.2941L70.1367 13.6159C69.8542 13.8378 69.5593 14.0437 69.2534 14.2323C68.8289 14.4909 68.3743 14.6971 67.8998 14.8463C67.3384 15.0328 66.7498 15.1257 66.158 15.1211C65.248 15.1334 64.3538 14.8841 63.5827 14.4031C62.8124 13.9044 62.202 13.1965 61.8235 12.3632C61.3858 11.3926 61.17 10.3374 61.1915 9.27371C61.1853 8.24855 61.3885 7.23283 61.7887 6.28814C62.1484 5.41549 62.7531 4.66434 63.5304 4.12447C64.3529 3.58499 65.3226 3.31096 66.3073 3.33971C66.8624 3.3361 67.4128 3.44125 67.9271 3.64915C68.3675 3.81683 68.7854 4.03801 69.1713 4.30766C69.4199 4.48384 69.6456 4.69007 69.8431 4.92161L69.9252 5.02806L70.3283 4.94142L70.3557 4.80278C70.4453 4.31283 70.5777 3.83158 70.7513 3.36446L70.8259 3.17384L70.6418 3.08967C70.2046 2.89512 69.7549 2.72971 69.2957 2.59455C68.822 2.45336 68.3377 2.34988 67.8475 2.2851C67.3648 2.22247 66.8787 2.19022 66.3919 2.18855C65.0755 2.17357 63.7729 2.4563 62.5824 3.0154C61.4595 3.54264 60.5153 4.38397 59.8653 5.43653C59.1849 6.57296 58.84 7.87704 58.87 9.19944C58.8607 10.1905 59.0249 11.1757 59.3552 12.1107C59.655 12.9599 60.1325 13.7362 60.756 14.3883C61.3789 15.0162 62.1346 15.4982 62.9681 15.7994Z" fill="white"/>
<path d="M71.7342 3.53017C71.9863 3.87346 72.3032 4.31741 72.6847 4.86204L74.6977 7.73869L77.5592 11.8828L76.6733 13.4796C76.2006 14.3188 75.7502 15.0763 75.3347 15.7299L75.0859 16.1186L75.5437 16.0567C75.8224 16.0193 76.1034 16.0011 76.3847 16.0022C76.574 16.0079 76.7627 16.0261 76.9495 16.0567L77.1038 16.079L78.3056 13.6405L82.9835 4.50061L84.1256 2.42358L83.0457 2.51271C82.8397 2.51349 82.634 2.49609 82.4311 2.46072L82.2594 2.42854L82.1922 2.58945C82.13 2.73798 82.028 2.97069 81.8837 3.29004C81.6971 3.71089 81.5677 3.99311 81.498 4.12927L80.4629 6.26323L79.398 8.38977L78.7137 9.78848C77.8279 8.63733 76.9844 7.46885 76.2031 6.32265C75.4566 5.22101 74.6504 3.95845 73.8044 2.56964L73.7372 2.46072L72.5802 2.52261L70.9131 2.44586L71.1992 2.81225C71.2838 2.91128 71.463 3.15636 71.7342 3.53017Z" fill="white"/>
<path d="M96.2207 2.44095L95.1657 2.51274L94.0883 2.43848V8.08778C93.5464 8.42476 92.9603 8.68552 92.3465 8.86265C91.6696 9.08669 90.9623 9.2069 90.249 9.21913C89.4773 9.23125 88.7125 9.07315 88.0096 8.75619C87.3999 8.46903 87.1063 8.0358 87.1063 7.43175V2.44095L86.0563 2.51274L84.9739 2.44095V7.4268C84.969 7.75863 85.0308 8.08809 85.1555 8.39587C85.2803 8.70364 85.4656 8.98353 85.7005 9.21913C86.1904 9.71584 86.794 10.087 87.4597 10.301C88.1173 10.5253 88.8073 10.6416 89.5025 10.6451C90.1294 10.6445 90.7549 10.5864 91.3712 10.4718C91.7096 10.4 92.0231 10.3257 92.3042 10.2465C92.5854 10.1673 92.8492 10.0806 93.088 9.99894C93.4737 9.85288 93.8146 9.7093 94.1082 9.57067V16.0914L94.7875 16.0344L95.1682 16.0171H95.417C95.4989 16.0332 95.5824 16.0399 95.6658 16.0369L96.2207 16.0914V2.44095Z" fill="white"/>
<path d="M98.5701 16.0072H98.7716C98.8383 16.0234 98.907 16.03 98.9757 16.027L99.4559 16.0914L99.9237 14.6555L100.357 13.4549L100.931 11.9522L101.362 10.8728H106C106.353 11.6823 106.677 12.4646 106.96 13.2024C107.112 13.5836 107.234 13.9005 107.329 14.1579C107.466 14.5342 107.682 15.1259 107.971 15.9329L108.025 16.0889L108.881 16.0196H109.187H109.496C109.555 16.031 109.615 16.0376 109.675 16.0394H109.775L110.541 16.0914L104.524 2.17358H103.8L97.5449 16.1112L98.3611 16.0072H98.5701ZM101.904 9.62512L103.686 5.44632L105.505 9.61522L101.904 9.62512Z" fill="white"/>
<path d="M112.738 14.3733C113.362 15.0069 114.12 15.494 114.958 15.7993C115.895 16.1386 116.886 16.3064 117.884 16.2944C118.418 16.2946 118.951 16.2532 119.479 16.1706C119.976 16.0924 120.467 15.9732 120.944 15.8141C121.415 15.6542 121.864 15.4345 122.278 15.1606L122.363 15.1036L122.519 13.294L122.126 13.6158C121.844 13.8378 121.549 14.0436 121.243 14.2322C120.819 14.4904 120.365 14.6965 119.892 14.8462C119.33 15.0325 118.742 15.1253 118.15 15.121C117.24 15.1333 116.346 14.884 115.575 14.4031C114.804 13.9043 114.194 13.1964 113.816 12.3632C113.378 11.3925 113.162 10.3373 113.184 9.27362C113.177 8.24847 113.381 7.23275 113.781 6.28806C114.14 5.4154 114.745 4.66426 115.522 4.12439C116.345 3.58536 117.315 3.31136 118.299 3.33962C118.854 3.33602 119.405 3.44117 119.919 3.64907C120.36 3.81616 120.778 4.03738 121.163 4.30758C121.412 4.48304 121.638 4.68935 121.835 4.92153L121.917 5.02798L122.323 4.94133L122.35 4.8027C122.437 4.31215 122.57 3.83066 122.746 3.36438L122.818 3.17376L122.634 3.08959C122.197 2.89423 121.747 2.72881 121.288 2.59447C120.814 2.45327 120.33 2.3498 119.84 2.28502C119.351 2.2166 118.859 2.17939 118.367 2.17362C117.05 2.15924 115.748 2.44194 114.557 3.00047C113.434 3.52771 112.49 4.36903 111.84 5.4216C111.16 6.55803 110.815 7.8621 110.845 9.1845C110.838 10.1764 111.007 11.1617 111.342 12.0958C111.639 12.9451 112.115 13.7215 112.738 14.3733Z" fill="white"/>
<path d="M125.831 16.0072H126.08C126.162 16.0217 126.246 16.0283 126.329 16.027L126.909 16.074V9.43447L128.058 9.40229C128.178 9.40229 128.429 9.40229 128.805 9.37011C129.18 9.33792 129.462 9.33792 129.646 9.33792H131.898L133.483 9.40229L134.635 9.43447V16.0913L135.18 16.0418L135.695 16.0146H135.943C136.025 16.0307 136.109 16.0374 136.192 16.0344L136.775 16.0814V2.44092L135.72 2.51271L134.642 2.44092V7.98873C134.127 7.98873 133.52 7.98873 132.833 8.01596C132.052 8.03576 131.36 8.05804 130.793 8.0828L126.914 7.99368V2.44092L125.854 2.51271L124.781 2.44092V16.0913L125.468 16.0344L125.831 16.0072Z" fill="white"/>
<path d="M141.962 12.378V2.44341L140.893 2.51273C140.63 2.52569 140.366 2.50992 140.106 2.46569L139.83 2.38647V16.0641H140.738L140.803 15.9775C141.052 15.6532 141.383 15.262 141.798 14.8115L149.693 5.67654V16.0914L149.942 16.0666C150.313 16.0295 150.592 16.0121 150.773 16.0121C151.049 16.0154 151.325 16.0336 151.599 16.0666L151.848 16.0938V2.45579H150.684L141.962 12.378Z" fill="white"/>
<path d="M165.722 2.4582L157.023 12.3779V2.40869L156.774 2.46068C156.505 2.50205 156.233 2.51945 155.961 2.51267C155.692 2.51939 155.423 2.50199 155.157 2.46068L154.908 2.40869V16.0641H155.809L164.767 5.68143V16.0913L165.015 16.0665C165.386 16.0294 165.665 16.0121 165.844 16.0121C166.121 16.0152 166.398 16.0334 166.673 16.0665L166.921 16.0938V2.45573L165.722 2.4582Z" fill="white"/>
<path d="M160.958 2.38647C161.689 2.38723 162.416 2.28811 163.12 2.09188C163.808 1.90138 164.467 1.61907 165.078 1.25265L165.263 1.14372L164.576 0L164.399 0.116353C163.368 0.744963 162.177 1.06469 160.968 1.03727C159.775 1.06578 158.599 0.746531 157.586 0.118829L157.405 0L156.658 1.16353L156.852 1.27493C158.097 2.00186 159.514 2.38554 160.958 2.38647Z" fill="white"/>
<path d="M63.8414 30.1033L65.3344 28.5957L70.1665 23.9663L69.5594 24.0208L68.8129 24.0777L67.9769 24.0133L63.1422 28.9843C62.8934 29.2319 62.6944 29.4225 62.5351 29.5661C62.3759 29.7097 62.244 29.8137 62.1519 29.8978C62.1024 29.9293 62.0509 29.9574 61.9977 29.982V24.0133L60.9377 24.0851L59.8652 24.0133V37.6539L60.552 37.5969L60.9178 37.5796H61.1666C61.2487 37.5943 61.332 37.6009 61.4154 37.5994L61.9977 37.6464V30.945L66.1779 35.8021C66.5611 36.2477 67.004 36.8295 67.4966 37.535L67.5663 37.6365L68.268 37.5895L68.7532 37.5722H69.0692C69.1359 37.583 69.2032 37.5888 69.2708 37.5895H69.3778L70.0322 37.6341V37.2355L68.4198 35.2402L63.8414 30.1033Z" fill="white"/>
<path d="M79.5496 30.8632C79.1838 30.606 78.7741 30.4172 78.3403 30.3062C78.2159 30.269 78.0915 30.2344 77.9745 30.2071C78.1164 30.1477 78.2482 30.0858 78.3727 30.0215C78.7555 29.8167 79.1025 29.5517 79.4003 29.2367C79.691 28.9286 79.9229 28.5704 80.0846 28.1796C80.2512 27.7725 80.3358 27.3368 80.3334 26.8973C80.3617 26.2839 80.1703 25.6803 79.7934 25.1941C79.3832 24.7377 78.8407 24.4194 78.2408 24.283C77.4402 24.0974 76.6191 24.0142 75.7973 24.0355H71.6918V37.1561H70.1689V37.5844H74.7772L76.3622 37.5448C76.8232 37.5035 77.2805 37.4291 77.7307 37.322C78.1765 37.2062 78.6013 37.0216 78.9897 36.7749C79.5623 36.4044 80.0308 35.895 80.3512 35.2948C80.6715 34.6946 80.8332 34.0232 80.8211 33.3437C80.8336 32.8251 80.7074 32.3125 80.4553 31.8584C80.237 31.4599 79.9265 31.1188 79.5496 30.8632ZM73.8142 30.987H74.7747C75.4763 30.9723 76.1765 31.0557 76.8548 31.2345C77.3583 31.3643 77.806 31.6527 78.1313 32.0564C78.4505 32.5261 78.6061 33.0871 78.5742 33.6532C78.5798 34.1555 78.4464 34.6497 78.1885 35.0816C77.9333 35.5058 77.5623 35.8492 77.1186 36.0718C76.625 36.3128 76.0808 36.4333 75.5311 36.4234H73.8267L73.8142 30.987ZM76.8424 29.4397C76.4912 29.5909 76.12 29.691 75.7401 29.7368C75.2583 29.788 74.774 29.8112 74.2895 29.8061H73.8267V25.1644H75.133C75.7202 25.1516 76.3064 25.2199 76.8747 25.3674C77.2724 25.4672 77.6237 25.6996 77.87 26.0259C78.1154 26.4056 78.2347 26.8525 78.2109 27.3033C78.216 27.7574 78.0918 28.2037 77.8526 28.5906C77.6157 28.97 77.2662 29.2667 76.8523 29.4397H76.8424Z" fill="white"/>
<path d="M87.6617 23.741L81.4062 37.6786L82.2224 37.5721H82.4314H82.633C82.6999 37.5872 82.7684 37.5938 82.837 37.5919L83.3097 37.6365L83.7775 36.2006L84.2105 35L84.7853 33.4973L85.2157 32.4179H89.8538C90.2071 33.2274 90.5306 34.0097 90.8143 34.7475C90.966 35.1287 91.088 35.4481 91.1825 35.703C91.3194 36.0793 91.5359 36.671 91.8245 37.478L91.8792 37.634L92.7352 37.5647H93.0412H93.3498C93.409 37.5744 93.4689 37.5802 93.5289 37.582H93.6285L94.3948 37.634L88.3858 23.741H87.6617ZM89.3761 31.1925H85.7706L87.5621 27.0236L89.3761 31.1925Z" fill="white"/>
<path d="M102.41 24.3302C101.425 24.0967 100.414 23.9902 99.4012 24.0134H95.7236V37.6291L96.4104 37.5722L96.7786 37.5549H97.0275C97.1094 37.5704 97.1929 37.5771 97.2763 37.5747L97.8561 37.6217V31.5565H98.1745C98.1985 31.5626 98.2218 31.5709 98.2442 31.5813L98.2815 31.5961H98.6349H98.7866C98.8638 31.5961 98.921 31.5961 98.9558 31.5961H99.1275C99.354 31.5961 99.5729 31.5961 99.7819 31.5689C99.991 31.5417 100.163 31.5243 100.297 31.4996C101.127 31.3535 101.932 31.0892 102.686 30.7148C103.278 30.4124 103.777 29.9544 104.126 29.3904C104.473 28.7698 104.645 28.0676 104.624 27.3579C104.657 26.6612 104.477 25.971 104.109 25.3774C103.685 24.8391 103.083 24.468 102.41 24.3302ZM97.8486 25.1843H98.931C99.2097 25.1843 99.5157 25.1843 99.8417 25.2017L100.397 25.2215C100.804 25.2463 101.198 25.3723 101.544 25.5878C101.832 25.7807 102.055 26.0549 102.186 26.3751C102.331 26.7294 102.404 27.109 102.4 27.4916C102.409 27.9903 102.291 28.4832 102.059 28.9249C101.827 29.3353 101.489 29.677 101.081 29.9152C100.61 30.1815 100.087 30.3428 99.548 30.388C99.3739 30.388 99.1698 30.388 98.9384 30.4054L98.5329 30.4252L97.8486 30.3955V25.1843Z" fill="white"/>
<path d="M115.841 24.8203L115.92 24.0232H105.457L105.512 24.5183L105.539 24.8278L105.452 25.6422L105.718 25.615C107.112 25.4739 108.455 25.3996 109.717 25.3922V37.6687L109.966 37.6365C110.512 37.5633 111.066 37.5633 111.613 37.6365L111.862 37.6662V25.3848C112.111 25.3848 112.496 25.4046 113.019 25.4269C113.303 25.4417 113.571 25.4467 113.803 25.4467L115.935 25.6274L115.841 24.8203Z" fill="white"/>
<path d="M139.542 33.5691L137.163 27.9272L135.553 24.0133H134.346L134.297 24.1544C134.048 24.8599 133.528 26.1349 132.751 27.9619C132.303 29.0016 131.884 29.9638 131.492 30.8484C131.034 31.8881 130.594 32.8784 130.181 33.7869L128.618 37.1537L122.821 23.741H122.099L115.844 37.6786L116.662 37.5721H116.874H117.078C117.144 37.5883 117.212 37.5949 117.279 37.5919L117.755 37.6365L118.22 36.2006L118.653 35L119.23 33.4973L119.658 32.4179H124.296C124.65 33.2274 124.973 34.0097 125.259 34.7475C125.409 35.1287 125.53 35.4481 125.625 35.703C125.764 36.0793 125.978 36.671 126.267 37.478L126.324 37.634L127.18 37.5647H127.484H127.792C127.852 37.5745 127.913 37.5803 127.974 37.582H128.071L128.414 37.6068L128.394 37.6464L128.643 37.6216L128.83 37.634V37.6043L129.056 37.582L129.439 37.5548L129.76 37.5721L130.32 37.6266L130.375 37.4632C130.731 36.3838 131.122 35.2599 131.562 34.1236C132.022 32.9254 132.493 31.7495 132.96 30.633C133.143 30.2006 133.332 29.7591 133.528 29.3086L134.122 27.9247C134.413 27.2637 134.575 26.8924 134.667 26.6869L138.997 37.6291L139.788 37.5721H140.325L140.363 37.5894H140.592L141.388 37.6662L141.199 37.3147C140.987 36.8864 140.425 35.6337 139.542 33.5691ZM123.809 31.1925H120.201L121.992 27.0236L123.809 31.1925Z" fill="white"/>
<defs>
<radialGradient id="paint0_radial" cx="0" cy="0" r="1" gradientUnits="userSpaceOnUse" gradientTransform="translate(26.0829 25.8375) scale(25.594 24.7)">
<stop offset="0.01" stop-color="#CDCDCD"/>
<stop offset="0.3" stop-color="#C6C6C5"/>
<stop offset="0.66" stop-color="#B1B1B1"/>
<stop offset="1" stop-color="#A5A5A4"/>
</radialGradient>
<linearGradient id="paint1_linear" x1="52.3491" y1="2.57955" x2="-2.71079" y2="51.7411" gradientUnits="userSpaceOnUse">
<stop offset="0.01" stop-color="#EEC880"/>
<stop offset="0.19" stop-color="#F2D68E"/>
<stop offset="0.41" stop-color="#F8F0E3"/>
<stop offset="0.73" stop-color="#C48411"/>
<stop offset="0.9" stop-color="#E4B86D"/>
<stop offset="0.95" stop-color="#EDC686"/>
</linearGradient>
<linearGradient id="paint2_linear" x1="6315" y1="608.237" x2="-121.215" y2="6383.99" gradientUnits="userSpaceOnUse">
<stop offset="0.01" stop-color="#EEC880"/>
<stop offset="0.19" stop-color="#F2D68E"/>
<stop offset="0.41" stop-color="#F8F0E3"/>
<stop offset="0.73" stop-color="#C48411"/>
<stop offset="0.9" stop-color="#E4B86D"/>
<stop offset="0.95" stop-color="#EDC686"/>
</linearGradient>
</defs>
</svg>
